<svg width="94" height="43" viewBox="0 0 94 43" fill="none" xmlns="http://www.w3.org/2000/svg">
<mask id="path-1-inside-1_442_5279" fill="white">
<path d="M16.6777 42.7463C19.2275 42.7431 21.6909 41.822 23.6173 40.1515C25.5437 38.4811 26.8043 36.173 27.1686 33.6493H68.3468C68.7083 36.1744 69.9683 38.4844 71.8955 40.1555C73.8228 41.8265 76.288 42.7464 78.8389 42.7464C81.3897 42.7464 83.8549 41.8265 85.7822 40.1555C87.7094 38.4844 88.9694 36.1744 89.3309 33.6493H90.9669C91.3181 33.6495 91.6585 33.5277 91.9298 33.3047C92.2012 33.0818 92.3868 32.7716 92.4549 32.427L93.971 24.7287C94.0062 24.5521 94.0094 24.3705 93.9804 24.1928C93.547 21.0386 92.054 18.1254 89.7466 15.9316C87.4391 13.7378 84.4544 12.3937 81.2823 12.12L66.8377 10.7331L57.8419 5.29609C53.0629 2.03095 47.4082 0.287267 41.6202 0.293965H34.9491C29.3311 0.301016 23.7249 0.782894 18.1892 1.7396C16.3933 2.04283 14.9054 2.33431 13.5044 2.64929L10.2887 3.36388C9.95139 3.43776 9.64939 3.62459 9.43268 3.89345C9.21597 4.16231 9.09753 4.4971 9.09696 4.84242V6.93448L2.42588 10.2724C1.69499 10.6345 1.08026 11.1943 0.651464 11.8882C0.222669 12.582 -0.00301288 13.3822 3.54497e-05 14.1979V24.8768C-0.0046658 26.0427 0.458407 27.1593 1.28583 27.9796L6.09756 32.7937C6.26604 35.486 7.45335 38.013 9.41818 39.8613C11.383 41.7095 13.9779 42.7402 16.6754 42.7439L16.6777 42.7463ZM16.6777 39.714C15.6822 39.714 14.6964 39.5179 13.7767 39.1369C12.857 38.7559 12.0213 38.1975 11.3173 37.4936C10.6134 36.7897 10.055 35.954 9.67401 35.0342C9.29304 34.1145 9.09696 33.1287 9.09696 32.1332C9.09696 31.1377 9.29304 30.1519 9.67401 29.2322C10.055 28.3124 10.6134 27.4767 11.3173 26.7728C12.0213 26.0688 12.857 25.5104 13.7767 25.1295C14.6964 24.7485 15.6822 24.5524 16.6777 24.5524C18.6883 24.5524 20.6165 25.3511 22.0381 26.7728C23.4598 28.1944 24.2585 30.1226 24.2585 32.1332C24.2585 34.1437 23.4598 36.0719 22.0381 37.4936C20.6165 38.9153 18.6883 39.714 16.6777 39.714ZM78.84 39.714C77.8445 39.714 76.8587 39.5179 75.939 39.1369C75.0193 38.7559 74.1836 38.1975 73.4796 37.4936C72.7757 36.7897 72.2173 35.954 71.8363 35.0342C71.4553 34.1145 71.2593 33.1287 71.2593 32.1332C71.2593 31.1377 71.4553 30.1519 71.8363 29.2322C72.2173 28.3124 72.7757 27.4767 73.4796 26.7728C74.1836 26.0688 75.0193 25.5104 75.939 25.1295C76.8587 24.7485 77.8445 24.5524 78.84 24.5524C80.8506 24.5524 82.7788 25.3511 84.2004 26.7728C85.6221 28.1944 86.4208 30.1226 86.4208 32.1332C86.4208 34.1437 85.6221 36.0719 84.2004 37.4936C82.7788 38.9153 80.8506 39.714 78.84 39.714ZM81.0097 15.1335H81.0238C82.8808 15.2863 84.6696 15.9186 86.2092 16.9717H84.9023V20.004H89.1475C90.0408 21.3368 90.6496 22.8388 90.9411 24.4184L89.7211 30.617H89.345C89.3262 30.4995 89.298 30.3867 89.2768 30.2691C89.2206 29.9305 89.1421 29.596 89.0418 29.2678C89.0065 29.1361 88.9712 29.0022 88.9313 28.8729C88.8644 28.674 88.7915 28.4773 88.7127 28.2829C88.668 28.17 88.6304 28.0549 88.581 27.942C88.4827 27.7191 88.3769 27.4996 88.2637 27.2838C88.2237 27.2086 88.1932 27.1311 88.1509 27.0558C87.9941 26.767 87.8231 26.4862 87.6384 26.2143C87.6055 26.165 87.5679 26.1203 87.535 26.0733C87.3856 25.8504 87.2248 25.6354 87.0531 25.4292C86.9826 25.3422 86.9003 25.2647 86.8322 25.1777C86.6929 25.015 86.5487 24.8566 86.3996 24.7029C86.3103 24.6112 86.2163 24.5266 86.1246 24.4396C85.981 24.3016 85.8336 24.1676 85.6827 24.0376C85.4321 23.8314 85.1758 23.6323 84.9141 23.4406C84.7989 23.3607 84.6837 23.2901 84.5685 23.2102C84.4076 23.1078 84.2454 23.0075 84.0819 22.9093C83.7944 22.7453 83.4995 22.5947 83.1981 22.458C83.0712 22.4016 82.9419 22.3405 82.8126 22.2888C82.6314 22.2165 82.4479 22.1499 82.2625 22.089C82.1333 22.042 82.004 21.9949 81.87 21.9573C81.6749 21.9009 81.4774 21.8539 81.2776 21.8045C81.1483 21.7763 81.0214 21.7411 80.8921 21.7176C80.6688 21.6706 80.4361 21.6423 80.2151 21.6118C80.1023 21.5977 79.9942 21.5765 79.8814 21.5648C79.1894 21.4994 78.4926 21.5018 77.8011 21.5718C77.6859 21.5836 77.5777 21.6047 77.4649 21.6188C77.238 21.6447 77.0122 21.6792 76.7879 21.7223C76.6587 21.7481 76.5294 21.781 76.4048 21.8116C76.205 21.8586 76.0052 21.9056 75.8101 21.9644C75.6776 22.0033 75.5467 22.0472 75.4175 22.096C75.2322 22.157 75.0488 22.2237 74.8675 22.2958C74.4309 22.473 74.0068 22.6796 73.5981 22.914C73.4336 23.0081 73.2714 23.1068 73.1116 23.2196C72.994 23.2901 72.8812 23.3677 72.766 23.4453C72.5038 23.6364 72.2474 23.8355 71.9974 24.0423C71.8453 24.171 71.6987 24.3059 71.5578 24.4466C71.4638 24.5336 71.3697 24.6182 71.2804 24.7099C71.1307 24.8623 70.9865 25.0199 70.8479 25.1824C70.7774 25.2694 70.6975 25.3469 70.6269 25.4363C70.4566 25.6463 70.2943 25.8627 70.1404 26.085C70.1098 26.132 70.0745 26.1744 70.0416 26.219C69.8587 26.4927 69.6877 26.7743 69.5292 27.0629C69.4892 27.1334 69.4587 27.2133 69.4164 27.2886C69.3031 27.505 69.1972 27.7253 69.099 27.9491C69.052 28.0619 69.0121 28.1771 68.9674 28.2876C68.8893 28.482 68.8171 28.6787 68.7511 28.8776C68.7088 29.0092 68.6736 29.1408 68.636 29.2725C68.5827 29.4644 68.5325 29.6572 68.4855 29.8507C68.455 29.9918 68.4315 30.1328 68.4056 30.2738C68.3821 30.3914 68.3539 30.5042 68.3374 30.6217H43.7593L43.0753 26.0733H65.1946V23.0339H42.6216L40.8586 11.2972L66.2806 13.756L81.0097 15.1335ZM41.6132 3.32627C46.822 3.32418 51.9091 4.90105 56.2035 7.84887L59.8634 10.0585L40.3932 8.18971L39.6645 3.32392H41.6132V3.32627ZM34.9421 3.32627H36.5946L37.281 7.89119L22.1359 6.4385L20.8971 4.377C25.5474 3.6819 30.2425 3.3307 34.9444 3.32627H34.9421ZM3.03234 16.9717H9.09696V13.9393H3.0676C3.10445 13.7357 3.1882 13.5435 3.31224 13.3778C3.43627 13.2122 3.59717 13.0777 3.78219 12.985L11.2901 9.23809C11.5432 9.11177 11.756 8.91714 11.9043 8.6762C12.0526 8.43527 12.1305 8.15765 12.1293 7.87473V6.05535L14.1555 5.59933C15.2368 5.35956 16.3721 5.1339 17.6767 4.89884L19.9263 8.64809C20.1731 9.05945 20.6009 9.32977 21.0781 9.37678L37.7511 10.9964L39.554 23.0363H28.8046V26.0686H40.0077L40.6894 30.617H27.1827C27.1662 30.4995 27.1357 30.3867 27.1145 30.2715C27.0593 29.9327 26.9808 29.5981 26.8794 29.2701C26.8442 29.1361 26.8113 29.0022 26.769 28.8729C26.7024 28.6739 26.6295 28.4772 26.5504 28.2829C26.508 28.17 26.4681 28.0549 26.4187 27.9444C26.3206 27.7198 26.2148 27.4987 26.1014 27.2815C26.0614 27.2086 26.0309 27.1311 25.9886 27.0558C25.832 26.7669 25.661 26.486 25.4761 26.2143C25.4456 26.165 25.4056 26.1203 25.3727 26.0733C25.2235 25.8503 25.0627 25.6353 24.8908 25.4292C24.8203 25.3422 24.7404 25.2647 24.6699 25.1777C24.5306 25.015 24.3864 24.8566 24.2373 24.7029C24.148 24.6112 24.054 24.5266 23.9623 24.4396C23.8095 24.3033 23.6732 24.1669 23.5204 24.0376C23.2707 23.8311 23.0144 23.6328 22.7517 23.4429C22.6389 23.3607 22.5237 23.2901 22.4062 23.2102C22.2558 23.1091 22.0865 23.0104 21.922 22.9093C21.6345 22.7453 21.3396 22.5947 21.0381 22.458C20.9089 22.4016 20.7796 22.3405 20.6503 22.2888C20.4697 22.2169 20.287 22.1503 20.1026 22.089C19.971 22.042 19.844 21.9949 19.71 21.9573C19.514 21.9019 19.3164 21.8518 19.1177 21.8069C18.9884 21.7763 18.8591 21.7434 18.7298 21.7176C18.5065 21.6729 18.2762 21.6423 18.0528 21.6118C17.9424 21.5977 17.8319 21.5765 17.7191 21.5648C16.8509 21.4834 15.9759 21.5111 15.1146 21.6471L14.8043 21.6941C14.3183 21.7806 13.8392 21.9016 13.3704 22.0561C13.2858 22.0819 13.2035 22.1148 13.1212 22.1454C12.6926 22.298 12.2741 22.4778 11.8683 22.6837C11.8143 22.7119 11.7555 22.7354 11.6991 22.7659C11.5487 22.8482 11.3959 22.9446 11.2454 23.0363H3.03234V16.9717ZM7.98041 26.0686C7.70559 26.4608 7.45818 26.8716 7.23996 27.298L7.11303 27.5612C6.89442 28.0078 6.70872 28.4686 6.55828 28.941V28.9575L3.65996 26.0662L7.98041 26.0686Z"/>
</mask>
<path d="M16.6777 42.7463C19.2275 42.7431 21.6909 41.822 23.6173 40.1515C25.5437 38.4811 26.8043 36.173 27.1686 33.6493H68.3468C68.7083 36.1744 69.9683 38.4844 71.8955 40.1555C73.8228 41.8265 76.288 42.7464 78.8389 42.7464C81.3897 42.7464 83.8549 41.8265 85.7822 40.1555C87.7094 38.4844 88.9694 36.1744 89.3309 33.6493H90.9669C91.3181 33.6495 91.6585 33.5277 91.9298 33.3047C92.2012 33.0818 92.3868 32.7716 92.4549 32.427L93.971 24.7287C94.0062 24.5521 94.0094 24.3705 93.9804 24.1928C93.547 21.0386 92.054 18.1254 89.7466 15.9316C87.4391 13.7378 84.4544 12.3937 81.2823 12.12L66.8377 10.7331L57.8419 5.29609C53.0629 2.03095 47.4082 0.287267 41.6202 0.293965H34.9491C29.3311 0.301016 23.7249 0.782894 18.1892 1.7396C16.3933 2.04283 14.9054 2.33431 13.5044 2.64929L10.2887 3.36388C9.95139 3.43776 9.64939 3.62459 9.43268 3.89345C9.21597 4.16231 9.09753 4.4971 9.09696 4.84242V6.93448L2.42588 10.2724C1.69499 10.6345 1.08026 11.1943 0.651464 11.8882C0.222669 12.582 -0.00301288 13.3822 3.54497e-05 14.1979V24.8768C-0.0046658 26.0427 0.458407 27.1593 1.28583 27.9796L6.09756 32.7937C6.26604 35.486 7.45335 38.013 9.41818 39.8613C11.383 41.7095 13.9779 42.7402 16.6754 42.7439L16.6777 42.7463ZM16.6777 39.714C15.6822 39.714 14.6964 39.5179 13.7767 39.1369C12.857 38.7559 12.0213 38.1975 11.3173 37.4936C10.6134 36.7897 10.055 35.954 9.67401 35.0342C9.29304 34.1145 9.09696 33.1287 9.09696 32.1332C9.09696 31.1377 9.29304 30.1519 9.67401 29.2322C10.055 28.3124 10.6134 27.4767 11.3173 26.7728C12.0213 26.0688 12.857 25.5104 13.7767 25.1295C14.6964 24.7485 15.6822 24.5524 16.6777 24.5524C18.6883 24.5524 20.6165 25.3511 22.0381 26.7728C23.4598 28.1944 24.2585 30.1226 24.2585 32.1332C24.2585 34.1437 23.4598 36.0719 22.0381 37.4936C20.6165 38.9153 18.6883 39.714 16.6777 39.714ZM78.84 39.714C77.8445 39.714 76.8587 39.5179 75.939 39.1369C75.0193 38.7559 74.1836 38.1975 73.4796 37.4936C72.7757 36.7897 72.2173 35.954 71.8363 35.0342C71.4553 34.1145 71.2593 33.1287 71.2593 32.1332C71.2593 31.1377 71.4553 30.1519 71.8363 29.2322C72.2173 28.3124 72.7757 27.4767 73.4796 26.7728C74.1836 26.0688 75.0193 25.5104 75.939 25.1295C76.8587 24.7485 77.8445 24.5524 78.84 24.5524C80.8506 24.5524 82.7788 25.3511 84.2004 26.7728C85.6221 28.1944 86.4208 30.1226 86.4208 32.1332C86.4208 34.1437 85.6221 36.0719 84.2004 37.4936C82.7788 38.9153 80.8506 39.714 78.84 39.714ZM81.0097 15.1335H81.0238C82.8808 15.2863 84.6696 15.9186 86.2092 16.9717H84.9023V20.004H89.1475C90.0408 21.3368 90.6496 22.8388 90.9411 24.4184L89.7211 30.617H89.345C89.3262 30.4995 89.298 30.3867 89.2768 30.2691C89.2206 29.9305 89.1421 29.596 89.0418 29.2678C89.0065 29.1361 88.9712 29.0022 88.9313 28.8729C88.8644 28.674 88.7915 28.4773 88.7127 28.2829C88.668 28.17 88.6304 28.0549 88.581 27.942C88.4827 27.7191 88.3769 27.4996 88.2637 27.2838C88.2237 27.2086 88.1932 27.1311 88.1509 27.0558C87.9941 26.767 87.8231 26.4862 87.6384 26.2143C87.6055 26.165 87.5679 26.1203 87.535 26.0733C87.3856 25.8504 87.2248 25.6354 87.0531 25.4292C86.9826 25.3422 86.9003 25.2647 86.8322 25.1777C86.6929 25.015 86.5487 24.8566 86.3996 24.7029C86.3103 24.6112 86.2163 24.5266 86.1246 24.4396C85.981 24.3016 85.8336 24.1676 85.6827 24.0376C85.4321 23.8314 85.1758 23.6323 84.9141 23.4406C84.7989 23.3607 84.6837 23.2901 84.5685 23.2102C84.4076 23.1078 84.2454 23.0075 84.0819 22.9093C83.7944 22.7453 83.4995 22.5947 83.1981 22.458C83.0712 22.4016 82.9419 22.3405 82.8126 22.2888C82.6314 22.2165 82.4479 22.1499 82.2625 22.089C82.1333 22.042 82.004 21.9949 81.87 21.9573C81.6749 21.9009 81.4774 21.8539 81.2776 21.8045C81.1483 21.7763 81.0214 21.7411 80.8921 21.7176C80.6688 21.6706 80.4361 21.6423 80.2151 21.6118C80.1023 21.5977 79.9942 21.5765 79.8814 21.5648C79.1894 21.4994 78.4926 21.5018 77.8011 21.5718C77.6859 21.5836 77.5777 21.6047 77.4649 21.6188C77.238 21.6447 77.0122 21.6792 76.7879 21.7223C76.6587 21.7481 76.5294 21.781 76.4048 21.8116C76.205 21.8586 76.0052 21.9056 75.8101 21.9644C75.6776 22.0033 75.5467 22.0472 75.4175 22.096C75.2322 22.157 75.0488 22.2237 74.8675 22.2958C74.4309 22.473 74.0068 22.6796 73.5981 22.914C73.4336 23.0081 73.2714 23.1068 73.1116 23.2196C72.994 23.2901 72.8812 23.3677 72.766 23.4453C72.5038 23.6364 72.2474 23.8355 71.9974 24.0423C71.8453 24.171 71.6987 24.3059 71.5578 24.4466C71.4638 24.5336 71.3697 24.6182 71.2804 24.7099C71.1307 24.8623 70.9865 25.0199 70.8479 25.1824C70.7774 25.2694 70.6975 25.3469 70.6269 25.4363C70.4566 25.6463 70.2943 25.8627 70.1404 26.085C70.1098 26.132 70.0745 26.1744 70.0416 26.219C69.8587 26.4927 69.6877 26.7743 69.5292 27.0629C69.4892 27.1334 69.4587 27.2133 69.4164 27.2886C69.3031 27.505 69.1972 27.7253 69.099 27.9491C69.052 28.0619 69.0121 28.1771 68.9674 28.2876C68.8893 28.482 68.8171 28.6787 68.7511 28.8776C68.7088 29.0092 68.6736 29.1408 68.636 29.2725C68.5827 29.4644 68.5325 29.6572 68.4855 29.8507C68.455 29.9918 68.4315 30.1328 68.4056 30.2738C68.3821 30.3914 68.3539 30.5042 68.3374 30.6217H43.7593L43.0753 26.0733H65.1946V23.0339H42.6216L40.8586 11.2972L66.2806 13.756L81.0097 15.1335ZM41.6132 3.32627C46.822 3.32418 51.9091 4.90105 56.2035 7.84887L59.8634 10.0585L40.3932 8.18971L39.6645 3.32392H41.6132V3.32627ZM34.9421 3.32627H36.5946L37.281 7.89119L22.1359 6.4385L20.8971 4.377C25.5474 3.6819 30.2425 3.3307 34.9444 3.32627H34.9421ZM3.03234 16.9717H9.09696V13.9393H3.0676C3.10445 13.7357 3.1882 13.5435 3.31224 13.3778C3.43627 13.2122 3.59717 13.0777 3.78219 12.985L11.2901 9.23809C11.5432 9.11177 11.756 8.91714 11.9043 8.6762C12.0526 8.43527 12.1305 8.15765 12.1293 7.87473V6.05535L14.1555 5.59933C15.2368 5.35956 16.3721 5.1339 17.6767 4.89884L19.9263 8.64809C20.1731 9.05945 20.6009 9.32977 21.0781 9.37678L37.7511 10.9964L39.554 23.0363H28.8046V26.0686H40.0077L40.6894 30.617H27.1827C27.1662 30.4995 27.1357 30.3867 27.1145 30.2715C27.0593 29.9327 26.9808 29.5981 26.8794 29.2701C26.8442 29.1361 26.8113 29.0022 26.769 28.8729C26.7024 28.6739 26.6295 28.4772 26.5504 28.2829C26.508 28.17 26.4681 28.0549 26.4187 27.9444C26.3206 27.7198 26.2148 27.4987 26.1014 27.2815C26.0614 27.2086 26.0309 27.1311 25.9886 27.0558C25.832 26.7669 25.661 26.486 25.4761 26.2143C25.4456 26.165 25.4056 26.1203 25.3727 26.0733C25.2235 25.8503 25.0627 25.6353 24.8908 25.4292C24.8203 25.3422 24.7404 25.2647 24.6699 25.1777C24.5306 25.015 24.3864 24.8566 24.2373 24.7029C24.148 24.6112 24.054 24.5266 23.9623 24.4396C23.8095 24.3033 23.6732 24.1669 23.5204 24.0376C23.2707 23.8311 23.0144 23.6328 22.7517 23.4429C22.6389 23.3607 22.5237 23.2901 22.4062 23.2102C22.2558 23.1091 22.0865 23.0104 21.922 22.9093C21.6345 22.7453 21.3396 22.5947 21.0381 22.458C20.9089 22.4016 20.7796 22.3405 20.6503 22.2888C20.4697 22.2169 20.287 22.1503 20.1026 22.089C19.971 22.042 19.844 21.9949 19.71 21.9573C19.514 21.9019 19.3164 21.8518 19.1177 21.8069C18.9884 21.7763 18.8591 21.7434 18.7298 21.7176C18.5065 21.6729 18.2762 21.6423 18.0528 21.6118C17.9424 21.5977 17.8319 21.5765 17.7191 21.5648C16.8509 21.4834 15.9759 21.5111 15.1146 21.6471L14.8043 21.6941C14.3183 21.7806 13.8392 21.9016 13.3704 22.0561C13.2858 22.0819 13.2035 22.1148 13.1212 22.1454C12.6926 22.298 12.2741 22.4778 11.8683 22.6837C11.8143 22.7119 11.7555 22.7354 11.6991 22.7659C11.5487 22.8482 11.3959 22.9446 11.2454 23.0363H3.03234V16.9717ZM7.98041 26.0686C7.70559 26.4608 7.45818 26.8716 7.23996 27.298L7.11303 27.5612C6.89442 28.0078 6.70872 28.4686 6.55828 28.941V28.9575L3.65996 26.0662L7.98041 26.0686Z" stroke="black" stroke-width="2" mask="url(#path-1-inside-1_442_5279)"/>
<path d="M16.6787 28.085C17.7523 28.0851 18.7819 28.5114 19.541 29.2705C20.3001 30.0296 20.7264 31.0593 20.7266 32.1328C20.7266 33.2065 20.3002 34.2369 19.541 34.9961C18.7819 35.7552 17.7523 36.1815 16.6787 36.1816C16.1471 36.1816 15.6201 36.0775 15.1289 35.874C14.6377 35.6706 14.1914 35.372 13.8154 34.9961C13.4396 34.6202 13.1419 34.1737 12.9385 33.6826C12.735 33.1914 12.6299 32.6645 12.6299 32.1328C12.6299 31.6013 12.7351 31.075 12.9385 30.584C13.1419 30.0929 13.4396 29.6464 13.8154 29.2705C14.1914 28.8946 14.6377 28.596 15.1289 28.3926C15.6201 28.1891 16.1471 28.085 16.6787 28.085ZM78.8408 28.085C79.9144 28.085 80.9439 28.5114 81.7031 29.2705C82.4622 30.0296 82.8885 31.0593 82.8887 32.1328C82.8887 33.2065 82.4624 34.2369 81.7031 34.9961C80.9439 35.7552 79.9144 36.1816 78.8408 36.1816C78.3092 36.1816 77.7822 36.0775 77.291 35.874C76.7999 35.6706 76.3534 35.372 75.9775 34.9961C75.6017 34.6202 75.304 34.1737 75.1006 33.6826C74.8971 33.1914 74.792 32.6645 74.792 32.1328C74.7921 31.6013 74.8972 31.075 75.1006 30.584C75.304 30.0929 75.6017 29.6464 75.9775 29.2705C76.3534 28.8946 76.7999 28.596 77.291 28.3926C77.7822 28.1891 78.3092 28.085 78.8408 28.085ZM16.6787 30.1172C16.144 30.1172 15.631 30.3299 15.2529 30.708C14.875 31.086 14.6622 31.5983 14.6621 32.1328C14.6621 32.6675 14.8749 33.1805 15.2529 33.5586C15.631 33.9367 16.144 34.1494 16.6787 34.1494C17.2133 34.1493 17.7255 33.9366 18.1035 33.5586C18.4816 33.1805 18.6943 32.6675 18.6943 32.1328C18.6942 31.5983 18.4815 31.086 18.1035 30.708C17.7255 30.33 17.2133 30.1173 16.6787 30.1172ZM78.8408 30.1172C78.3061 30.1172 77.7931 30.3299 77.415 30.708C77.0371 31.086 76.8243 31.5983 76.8242 32.1328C76.8242 32.6675 77.037 33.1805 77.415 33.5586C77.7931 33.9367 78.3061 34.1494 78.8408 34.1494C79.3755 34.1494 79.8885 33.9367 80.2666 33.5586C80.6445 33.1805 80.8564 32.6674 80.8564 32.1328C80.8563 31.5984 80.6444 31.086 80.2666 30.708C79.8885 30.3299 79.3755 30.1172 78.8408 30.1172ZM68.2275 17.4717C68.7887 17.4717 69.2441 17.9271 69.2441 18.4883C69.2439 19.0493 68.7886 19.5039 68.2275 19.5039C67.6665 19.5039 67.2111 19.0493 67.2109 18.4883C67.2109 17.9271 67.6663 17.4717 68.2275 17.4717ZM47.001 15.9561H50.0342C50.5952 15.9563 51.0498 16.4107 51.0498 16.9717C51.0498 17.5327 50.5952 17.988 50.0342 17.9883H47.001C46.44 17.988 45.9854 17.5327 45.9854 16.9717C45.9854 16.4107 46.44 15.9563 47.001 15.9561ZM22.7432 14.4395H25.7754C26.3365 14.4395 26.791 14.8949 26.791 15.4561C26.7908 16.017 26.3364 16.4716 25.7754 16.4717H22.7432C22.1821 16.4717 21.7268 16.0171 21.7266 15.4561C21.7266 14.8948 22.182 14.4395 22.7432 14.4395Z" stroke="black"/>
</svg>
