<svg width="48" height="49" viewBox="0 0 48 49" fill="none" xmlns="http://www.w3.org/2000/svg">
<circle cx="24" cy="24.6855" r="24" fill="#1A1B19"/>
<path fill-rule="evenodd" clip-rule="evenodd" d="M21.6413 28.2807C21.4337 27.122 21.4206 26.9072 21.014 25.9428C20.6075 24.9783 20.0049 24.513 19.3497 24.513C19.3497 24.513 19.0718 24.4978 18.8748 24.5654C18.6777 24.633 18.5046 24.7661 18.5046 24.7661C18.1263 25.0371 17.9935 25.2049 17.7402 25.549C17.2262 26.2476 16.9801 27.6358 16.9801 27.6358C16.9801 27.6358 16.8765 28.3656 16.7953 28.9986C16.7565 29.3005 16.6939 29.552 16.6414 29.6169L16.5529 29.7262L15.9275 29.6091C15.5836 29.5447 15.0813 29.4571 14.8114 29.4145C14.3558 29.3424 13.7523 29.2268 13.2302 29.1117C13.1102 29.0852 12.7544 29.0144 12.4395 28.9544C12.1247 28.8943 11.7688 28.8229 11.6489 28.7955C10.9976 28.6471 10.4272 28.5373 9.44062 28.3704C9.06584 28.3069 8.78978 28.0437 8.78516 27.7454C8.77916 27.3616 8.38614 25.1277 8.05235 24.7203C7.75435 24.3566 7.26134 24.1593 6.97362 24.2883C6.76222 24.3833 6.6906 24.5583 6.56732 24.772C6.26731 25.292 6.24705 26.4254 6.24705 26.4254V27.4754C6.24705 27.4754 6.08274 26.7832 6.06705 26.1554C6.05484 25.6668 6.03705 25.3454 6.03711 24.8471C6.03717 24.3487 6.13879 21.9815 7.22312 21.2598C7.39499 21.1454 7.53957 21.0888 7.69149 21.0292C7.80455 20.9849 7.92168 20.939 8.05716 20.8665C8.76902 20.4857 9.18915 19.9909 9.60851 19.4971C10.0325 18.9978 10.4556 18.4995 11.1787 18.1208C11.8579 17.765 12.2617 17.5816 13.009 17.4098C13.9541 17.1926 15.4898 17.3039 15.4898 17.3039C15.4898 17.3039 26.7648 17.2739 27.2448 17.3039C27.6742 17.3307 28.3511 17.811 28.4888 17.9118C28.1417 17.7457 27.8751 17.6519 27.6517 17.611C27.3764 17.5607 18.596 17.4993 17.6334 17.5411C17.0039 17.5683 16.7129 17.6759 16.9655 17.7882C17.0135 17.8096 17.2533 18.1833 17.3446 18.3788C17.3795 18.4539 17.5436 18.9124 17.7092 19.3979C18.3374 21.2404 18.4098 21.2945 19.8962 21.0374C20.1661 20.9906 20.6692 20.9245 21.014 20.8903C21.3589 20.8561 21.8741 20.8052 22.159 20.7773C23.5336 20.6422 26.7156 20.6042 28.8112 20.6977C32.2857 20.8529 32.8954 20.8903 32.8954 20.8903L40.9598 23.7831C40.9574 23.784 40.955 23.785 40.9527 23.786C40.9282 23.7969 40.905 23.8141 40.8835 23.8381C40.8263 23.9017 40.5995 24.0895 40.3793 24.2556L40.3744 24.2592C40.1068 24.461 39.9926 24.5472 39.9591 24.6578C39.9342 24.7402 39.9541 24.8362 39.9889 25.0037L39.9897 25.0075L40.0541 25.3178L40.7572 25.2924C41.3312 25.2716 41.5639 25.2418 41.6373 25.1063C41.6872 25.4167 41.8972 26.7286 41.9616 27.2199C41.8882 27.0357 41.7303 27.0833 41.4066 27.2078C40.112 27.7064 39.5991 29.2184 40.5796 29.6462C40.8934 29.7831 41.4922 29.7623 41.7982 29.6378C41.5679 29.908 40.953 30.6884 40.8964 30.7011C40.8398 30.7138 40.6054 30.7278 40.5103 30.7245C40.4152 30.7212 40.1594 30.7011 40.1037 30.6753C40.0479 30.6495 39.5077 30.2101 39.5077 30.2101C38.966 29.8033 38.6076 29.5641 38.2047 29.4338C38.0667 29.3891 37.9235 29.3573 37.766 29.3358C37.3622 29.2808 36.8641 29.2941 36.1176 29.3361C35.5029 29.3706 34.5705 29.4216 34.0457 29.4493C32.1088 29.5517 31.8469 29.634 30.9908 30.4074C30.8987 30.4906 30.8179 30.5661 30.7447 30.6345C30.5441 30.8219 30.4 30.9566 30.2338 31.0533C29.8106 31.2999 29.2444 31.3009 27.2356 31.3044C26.9481 31.3049 26.6311 31.3055 26.2807 31.3068C26.0709 31.3076 25.8727 31.3085 25.6856 31.3094L25.6819 31.3094C23.3223 31.3201 22.0752 30.7231 22.0752 30.7231C22.0752 30.7231 21.9865 30.2325 21.9348 29.9173C21.8672 29.5049 21.7149 28.692 21.6413 28.2807ZM21.4206 24.6532C21.5169 24.4974 22.2755 24.3193 23.8494 24.0829C23.9243 24.0717 24.1574 24.0731 24.3673 24.0861C24.7213 24.1079 24.9404 24.1453 25.4306 24.2677C26.5245 24.5407 27.6754 24.7485 28.3205 24.7891C28.9654 24.8297 29.104 24.9088 29.3956 25.4028C29.6324 25.8037 29.309 25.9001 27.5843 25.9428C25.7755 25.9873 23.3195 25.7652 22.5543 25.4876C21.9438 25.2662 21.3237 24.8099 21.4206 24.6532ZM23.588 29.2924C23.6206 28.4014 23.7173 28.1951 24.1706 28.0478C24.4555 27.9553 27.1829 28.054 28.0478 28.1882C28.9188 28.3233 28.9303 28.3275 29.1779 28.6009C29.7367 29.2182 29.2154 30.2743 28.2932 30.3933C28.1433 30.4127 27.8488 30.4523 27.6389 30.4815C26.9638 30.5753 23.8182 30.5537 23.719 30.4546C23.5917 30.3273 23.5602 30.0481 23.588 29.2924ZM31.4415 24.643C32.3658 24.4942 32.639 24.4693 33.773 24.4308C36.0318 24.3542 38.981 24.4058 39.1868 24.5256C39.7963 24.8805 39.6457 27.029 38.9894 27.3404C38.2227 27.7042 32.3444 27.9684 31.7765 27.6645C31.2318 27.373 30.9916 27.0148 30.8158 26.2306C30.5395 24.999 30.6281 24.774 31.4415 24.643ZM9.41418 20.0505C11.0648 18.4019 12.1361 17.7538 13.4349 17.6177C15.1859 17.4345 16.0698 18.047 16.5129 19.7512C16.5856 20.0311 16.6681 20.3348 16.6961 20.4263C16.7972 20.7558 17.0986 21.3001 17.2886 21.4955C17.5945 21.8107 17.5319 21.8359 16.5482 21.7939C15.5031 21.7493 14.3125 21.6722 13.5168 21.5976C13.1868 21.5667 12.6225 21.5163 12.2627 21.4857C11.9028 21.4551 11.3262 21.4051 10.9813 21.3748C10.6364 21.3444 9.92485 21.3069 9.39998 21.2913C8.12601 21.2536 8.02972 21.2295 8.36455 21.0317C8.45483 20.9784 8.92718 20.5368 9.41418 20.0505ZM8.61763 22.176C7.93354 22.282 7.88482 22.3321 8.39849 22.4013C9.40298 22.5366 10.5093 22.6976 11.1448 22.8011C11.914 22.9264 12.1549 22.9599 13.4621 23.123C13.972 23.1866 14.5731 23.2619 14.798 23.2902C15.5361 23.3833 16.5974 23.4177 16.5974 23.3486C16.5974 23.3078 16.4673 23.2862 16.2217 23.2862C15.8108 23.2862 14.9732 23.1317 14.4164 22.9532C14.2214 22.8907 13.8411 22.7828 13.5713 22.7134C13.3013 22.6439 12.8474 22.5273 12.5625 22.4541C12.2777 22.3809 11.8237 22.2903 11.5537 22.253C11.2839 22.2156 10.9297 22.1629 10.7668 22.1359C10.3469 22.0661 9.18696 22.0878 8.61763 22.176Z" fill="#B22930"/>
<path fill-rule="evenodd" clip-rule="evenodd" d="M23.8494 24.0829C22.2755 24.3193 21.5169 24.4974 21.4206 24.6532C21.3237 24.8099 21.9438 25.2662 22.5543 25.4876C23.3195 25.7652 25.7755 25.9873 27.5843 25.9428C29.309 25.9001 29.6324 25.8037 29.3956 25.4028C29.104 24.9088 28.9654 24.8297 28.3205 24.7891C27.6754 24.7485 26.5245 24.5407 25.4306 24.2677C24.9404 24.1453 24.7213 24.1079 24.3673 24.0861C24.1574 24.0731 23.9243 24.0717 23.8494 24.0829Z" fill="#EEEEEE"/>
<path d="M8.04446 26.9898C8.05341 25.947 7.84815 25.052 7.5492 24.6784C7.99226 24.7286 8.33762 25.8283 8.32606 27.1744C8.31426 28.5499 7.93421 29.6619 7.47719 29.6579C7.36664 29.657 7.26169 29.5908 7.16631 29.4716C7.17602 29.4727 7.18578 29.4733 7.19558 29.4734C7.6526 29.4773 8.03266 28.3653 8.04446 26.9898Z" fill="#EEEEEE"/>
<path d="M20.4179 28.1515C20.3026 26.7868 19.8576 25.6473 19.3254 25.2032C20.0515 25.2031 20.7496 26.5895 20.8984 28.351C21.0505 30.1511 20.5715 31.6612 19.8284 31.724C19.6487 31.7392 19.47 31.6683 19.3001 31.5266C19.316 31.5266 19.332 31.5259 19.3479 31.5246C20.091 31.4618 20.57 29.9516 20.4179 28.1515Z" fill="#EEEEEE"/>
<path fill-rule="evenodd" clip-rule="evenodd" d="M40.9608 23.7832C40.9608 23.7832 41.2922 24.1293 41.4248 24.3883C41.557 24.6467 41.6385 25.1066 41.6385 25.1066C41.5651 25.2422 41.3325 25.272 40.7584 25.2928L40.0554 25.3182L39.991 25.0079L39.9901 25.0041C39.9554 24.8366 39.9354 24.7406 39.9604 24.6582C39.9938 24.5476 40.1081 24.4614 40.3757 24.2596L40.3805 24.2559C40.6007 24.0899 40.8276 23.9021 40.8847 23.8385C40.8966 23.8251 40.9091 23.8139 40.922 23.8047C40.9324 23.7973 40.943 23.7913 40.9539 23.7864L40.9608 23.7832Z" fill="#EEEEEE"/>
<path d="M9.15039 38.7178C9.30716 38.7772 9.46165 38.8316 9.60938 38.875C10.4212 39.1137 10.9219 39.1511 11.6963 39.251C12.7932 39.3925 13.6861 39.3017 14.5254 39.2188C15.3658 39.1357 16.1544 39.0601 17.124 39.1904C17.9074 39.2958 18.2597 39.3805 19.0186 39.6221C19.9493 39.9183 20.4502 40.2203 21.2793 40.8125C21.6825 41.1005 21.96 41.3352 22.2568 41.5791C22.5553 41.8243 22.865 42.0712 23.3105 42.3564C23.4602 42.4523 23.6014 42.5407 23.7363 42.626C23.5422 42.5764 23.3356 42.5191 23.0957 42.4463C22.66 42.3141 22.3349 42.171 22 42.0107C21.6666 41.8512 21.3012 41.6639 20.8281 41.4717C20.2975 41.2561 19.9556 41.0646 19.4932 40.8555C19.0509 40.6555 18.5822 40.4837 17.9531 40.3906C17.1415 40.2706 16.6228 40.2419 15.7812 40.3936C15.5759 40.4306 15.3306 40.4961 15.1475 40.5488C15.0537 40.5758 14.9718 40.601 14.9131 40.6191C14.8836 40.6283 14.8593 40.6354 14.8428 40.6406C14.8348 40.6432 14.8287 40.646 14.8242 40.6475C14.822 40.6482 14.8196 40.648 14.8184 40.6484L14.8174 40.6494H14.8164L13.3506 41.124L14.8164 41.6006L14.8184 41.6016C14.8202 41.6022 14.8235 41.6033 14.8271 41.6045C14.8348 41.607 14.8467 41.6104 14.8613 41.6152C14.8912 41.6251 14.9348 41.6398 14.9893 41.6582C15.0988 41.6953 15.2519 41.7485 15.4248 41.8105C15.7747 41.936 16.1912 42.0947 16.498 42.2383C17.2693 42.5992 17.6768 42.8371 18.3701 43.332C18.6825 43.555 18.9427 43.764 19.2168 43.9814C19.4893 44.1977 19.7734 44.4208 20.1172 44.6572C20.3522 44.8188 20.5486 44.9564 20.7344 45.083C20.2934 45.0245 19.866 44.9546 19.4932 44.8682C18.1892 44.5657 17.479 44.3259 16.251 43.7871C14.8971 43.193 14.1938 42.7475 12.9385 41.9092C11.7524 41.1171 11.109 40.668 10.0938 39.7109C9.79601 39.4302 9.46767 39.0772 9.15039 38.7178Z" fill="#B22930" stroke="#B22930"/>
<path d="M43.7031 32.6797C43.4059 33.3423 43.2011 33.7339 42.8027 34.3828C42.2916 35.2153 42.0672 35.6502 41.4385 36.2686C40.782 36.9142 40.3869 37.2293 39.582 37.5752C38.891 37.8721 38.4693 37.9232 37.6514 38.0176C36.8573 38.1092 36.4112 38.0979 35.5977 38.0176C34.8291 37.9417 34.4276 37.8675 33.6885 37.6777C32.8829 37.4709 32.2367 37.2362 31.6943 36.9873C31.2744 36.7946 30.7131 36.4883 30.1377 36.1602C30.6078 36.2696 31.0238 36.3796 31.4648 36.4834C32.1088 36.6349 32.7665 36.7624 33.6172 36.8232C34.5599 36.8906 35.125 36.9473 36.1221 36.8213C37.1695 36.6889 37.7674 36.5124 38.7334 36.1299C39.6784 35.7557 40.1845 35.4503 41.0107 34.9141C42.1058 34.2033 42.769 33.7461 43.665 32.7246C43.6781 32.7097 43.6903 32.6944 43.7031 32.6797Z" fill="#B22930" stroke="#B22930"/>
<path d="M4.26758 31.123C4.90906 31.8165 5.77267 32.4642 6.89648 32.7549C9.75307 33.4937 10.4533 33.4862 12.7275 33.6064C13.6709 33.6563 14.4129 33.5864 15.1152 33.5293C15.8166 33.4722 16.4885 33.4274 17.3447 33.5088C19.1702 33.6823 20.1817 33.7689 21.79 34.459C22.7719 34.8803 23.4363 35.3814 24.0879 35.9561C24.7313 36.5235 25.4146 37.2145 26.3467 37.9131C26.9043 38.331 27.2675 38.6647 27.9121 39.083C28.8325 39.6802 29.4006 40.0126 30.457 40.4062C31.4806 40.7876 32.1058 40.9092 33.1602 41.0605C34.2739 41.2204 34.9396 41.2401 36.0303 41.1855C35.355 41.4849 34.801 41.5977 33.9121 41.7402C32.6748 41.9387 31.9604 41.9199 30.7021 41.7393C29.2688 41.5335 28.4882 41.2494 27.1572 40.6123C26.4542 40.2757 25.9589 39.9224 25.457 39.5332C24.9564 39.1449 24.4267 38.7019 23.6992 38.2412C22.6718 37.5906 22.0369 37.0437 20.8057 36.5234C19.5204 35.9804 18.7167 35.7831 17.3408 35.6172C16.4793 35.5134 15.8026 35.5729 15.1572 35.6484C14.5118 35.724 13.9189 35.8119 13.1533 35.7939C11.7747 35.7616 11.0743 35.8297 9.83691 35.5371C8.761 35.2826 8.18188 35.1138 7.27734 34.5742C6.03539 33.8334 5.41145 33.2402 4.67285 32.0127C4.52015 31.7589 4.3858 31.4524 4.26758 31.123Z" fill="#B22930" stroke="#B22930"/>
<path d="M5.21245 22.5201C5.00431 23.36 5.01273 24.0957 5.01273 24.0957C5.01273 24.0957 4.36072 23.7771 3.99634 23.2952C3.74714 22.9656 3.56856 22.3274 3.56856 22.3274C3.56856 22.3274 3.52856 21.8611 3.56856 21.5667C3.61884 21.1967 3.71051 20.988 3.85594 20.657L3.86335 20.6401C4.01891 20.286 4.20944 20.106 4.48106 19.8306C4.74599 19.562 5.03203 19.418 5.37156 19.2535C5.79357 19.0491 6.53588 19.0485 6.53588 19.0485C6.53588 19.0485 6.44208 18.6264 6.43045 18.3416C6.41504 17.9641 6.44643 17.6978 6.56952 17.3406C6.7209 16.9013 6.91101 16.5859 7.22868 16.2468C7.49636 15.961 7.79217 15.7305 8.27547 15.5417C8.75877 15.3528 9.41924 15.29 9.93678 15.4097C10.4386 15.5257 10.5833 15.6287 10.5833 15.6287C10.5833 15.6287 10.6589 15.1865 10.7549 14.9371C10.8508 14.6876 11.0511 14.4065 11.2994 14.1575C11.5476 13.9085 11.7583 13.7994 12.1413 13.6586C12.4072 13.5608 12.8575 13.5204 12.9908 13.5426C13.1241 13.5648 12.4868 12.7118 12.428 12.5004C12.3692 12.2889 12.0111 11.1849 12.3845 10.077C12.758 8.96902 13.4022 8.21965 14.2419 7.76943C15.0816 7.31921 16.0165 7.29621 16.1294 7.29633C16.2424 7.29646 17.0271 7.324 17.5493 7.56933C18.0714 7.81465 18.4962 7.9903 19.1074 8.70547C19.7186 9.42064 19.8736 11.111 19.8736 11.111C19.8736 11.111 19.341 10.7404 18.218 10.8771C17.095 11.0138 16.4189 12.0133 16.4189 12.0133C16.3289 12.1632 16.3495 12.1806 16.3495 12.1806C16.3495 12.1806 16.9329 11.5184 17.6481 11.3341C18.3633 11.1497 18.9293 11.2266 19.3621 11.3746C19.7949 11.5226 20.082 11.7462 20.082 11.7462C20.082 11.7462 20.1193 11.2292 20.4007 10.7641C20.682 10.2989 20.9665 10.0584 21.2003 9.90463C21.4341 9.75089 21.8529 9.52607 22.5501 9.49575C23.2473 9.46544 23.7897 9.79886 23.7897 9.79886C23.7897 9.79886 23.5132 9.03191 23.7048 7.89879C23.8963 6.76567 24.7617 5.88534 25.1608 5.59204C25.56 5.29873 26.4304 4.85339 27.2139 4.8256C27.9974 4.7978 28.4101 4.87472 29.1301 5.1747C29.8501 5.47469 30.4792 6.10966 30.7862 6.65291C31.1089 7.2238 31.2462 7.59768 31.3361 8.3317C31.4259 9.06573 31.3015 10.3298 31.3015 10.3298C31.3015 10.3298 30.8785 10.1859 30.5008 10.1377C30.1232 10.0895 29.4713 10.0896 28.8188 10.3298C28.1663 10.5701 27.6327 11.0825 27.6327 11.0825C27.6327 11.0825 28.1045 10.8621 28.5264 10.7329C28.9483 10.6037 29.4983 10.5465 29.9187 10.657C30.3391 10.7674 30.8085 10.9058 31.0803 11.0825C31.3521 11.2592 31.79 11.5837 31.9665 11.7935C32.1431 12.0034 32.5076 12.531 32.6374 12.9601C32.7673 13.3892 32.7859 13.7832 32.7859 13.7832C32.7859 13.7832 32.0584 13.9962 31.5431 14.5282C31.0278 15.0601 30.8937 15.5744 30.8937 15.5744C30.8937 15.5744 31.3473 15.0469 31.7172 14.8117C32.3478 14.4106 32.9263 14.292 33.6924 14.3382C34.58 14.3916 35.2626 14.8211 35.6326 15.1929C35.977 15.5391 36.2043 15.8847 36.3707 16.338C36.5371 16.7913 36.5261 17.3491 36.5261 17.3491C36.5261 17.3491 36.6949 16.8433 36.6486 16.338C36.6023 15.8327 36.4749 15.6127 36.3418 15.329C36.2086 15.0454 35.9839 14.7966 35.7797 14.5711C35.5756 14.3457 35.0549 14.0257 35.0549 14.0257C35.0549 14.0257 35.1515 12.4433 36.5194 11.6755C37.8873 10.9077 40.0413 11.0063 41.0654 12.7387C42.0895 14.4712 40.8365 15.9625 40.8365 15.9625C40.8365 15.9625 40.1383 15.744 39.3431 16.0757C38.5479 16.4073 38.2603 17.2301 38.2603 17.2301C38.2603 17.2301 38.9709 16.4675 39.8395 16.4487C40.708 16.4298 41.587 16.6253 42.162 17.7235C42.737 18.8216 41.948 19.8036 41.948 19.8036C41.948 19.8036 42.5546 19.5057 43.5323 19.7349C44.5099 19.964 45.0507 20.8522 45.1826 21.3569C45.3146 21.8617 45.3171 22.5958 44.7108 23.3446C44.1044 24.0933 42.7038 24.482 42.7038 24.482C42.7038 24.482 42.4399 23.5511 41.5099 23.0412C40.5799 22.5312 39.6507 22.1395 38.436 21.614C36.6349 20.8348 34.9753 20.246 34.097 19.8755C33.2188 19.505 32.6047 19.1275 31.946 18.606C31.2873 18.0846 28.779 16.4193 27.8203 16.1729C26.8616 15.9265 25.4573 15.916 24.1353 15.8556C22.8134 15.7952 17.3291 15.8556 15.4552 15.9376C13.5812 16.0196 12.3431 16.381 11.4793 16.6826C10.6156 16.9842 9.17612 18.3416 8.43542 19.0823C7.69471 19.823 7.94004 19.7511 7.0256 20.1316C6.11116 20.5122 5.42059 21.6802 5.21245 22.5201Z" fill="#EEEEEE"/>
<path d="M32.8676 11.5973C32.4136 10.9164 31.7129 10.5233 31.7129 10.5233C31.7129 10.5233 31.9239 9.31475 33.0804 8.90839C34.2368 8.50202 35.121 9.04311 35.5688 9.51079C36.0167 9.97847 36.4447 11.1429 35.5688 12.153C34.693 13.1631 33.3789 12.8043 33.3789 12.8043C33.3789 12.8043 33.3215 12.2782 32.8676 11.5973Z" fill="#EEEEEE"/>
<circle cx="21.24" cy="5.90602" r="1.74" fill="#EEEEEE"/>
<circle cx="10.1615" cy="9.1693" r="1.14" fill="#EEEEEE"/>
<circle cx="8.33623" cy="13.0628" r="1.41435" fill="#EEEEEE"/>
</svg>
