<svg width="48" height="67" viewBox="0 0 48 67" fill="none" xmlns="http://www.w3.org/2000/svg">
<path d="M48 24.5977C48 37.8525 24 66.145 24 66.145C24 66.145 0 37.8525 0 24.5977C0 11.3428 10.7452 0.597656 24 0.597656C37.2548 0.597656 48 11.3428 48 24.5977Z" fill="#1A1B19"/>
<path fill-rule="evenodd" clip-rule="evenodd" d="M21.6413 28.1928C21.4337 27.0341 21.4206 26.8194 21.014 25.8549C20.6075 24.8904 20.0049 24.4251 19.3497 24.4251C19.3497 24.4251 19.0718 24.4099 18.8748 24.4775C18.6777 24.5451 18.5046 24.6782 18.5046 24.6782C18.1263 24.9492 17.9935 25.117 17.7402 25.4611C17.2262 26.1597 16.9801 27.548 16.9801 27.548C16.9801 27.548 16.8765 28.2777 16.7953 28.9107C16.7565 29.2126 16.6939 29.4641 16.6414 29.529L16.5529 29.6383L15.9275 29.5212C15.5836 29.4568 15.0813 29.3692 14.8114 29.3266C14.3558 29.2545 13.7523 29.1389 13.2302 29.0238C13.1102 28.9973 12.7544 28.9265 12.4395 28.8665C12.1247 28.8064 11.7688 28.735 11.6489 28.7076C10.9976 28.5592 10.4272 28.4494 9.44062 28.2825C9.06584 28.219 8.78978 27.9558 8.78516 27.6575C8.77916 27.2737 8.38614 25.0398 8.05235 24.6324C7.75435 24.2687 7.26134 24.0714 6.97362 24.2005C6.76222 24.2954 6.6906 24.4704 6.56732 24.6841C6.26731 25.2041 6.24705 26.3375 6.24705 26.3375V27.3875C6.24705 27.3875 6.08274 26.6953 6.06705 26.0675C6.05484 25.5789 6.03705 25.2575 6.03711 24.7592C6.03717 24.2608 6.13879 21.8936 7.22312 21.1719C7.39499 21.0575 7.53957 21.0009 7.69149 20.9413C7.80455 20.897 7.92168 20.8511 8.05716 20.7786C8.76902 20.3978 9.18915 19.903 9.60851 19.4092C10.0325 18.9099 10.4556 18.4116 11.1787 18.0329C11.8579 17.6771 12.2617 17.4937 13.009 17.3219C13.9541 17.1047 15.4898 17.216 15.4898 17.216C15.4898 17.216 26.7648 17.186 27.2448 17.216C27.6742 17.2428 28.3511 17.7231 28.4888 17.824C28.1417 17.6578 27.8751 17.564 27.6517 17.5232C27.3764 17.4728 18.596 17.4114 17.6334 17.4532C17.0039 17.4804 16.7129 17.588 16.9655 17.7003C17.0135 17.7217 17.2533 18.0954 17.3446 18.291C17.3795 18.366 17.5436 18.8245 17.7092 19.31C18.3374 21.1525 18.4098 21.2066 19.8962 20.9495C20.1661 20.9027 20.6692 20.8366 21.014 20.8024C21.3589 20.7682 21.8741 20.7173 22.159 20.6894C23.5336 20.5543 26.7156 20.5163 28.8112 20.6098C32.2857 20.765 32.8954 20.8024 32.8954 20.8024L40.9598 23.6952C40.9574 23.6961 40.955 23.6971 40.9527 23.6981C40.9282 23.709 40.905 23.7262 40.8835 23.7502C40.8263 23.8138 40.5995 24.0016 40.3793 24.1677L40.3744 24.1713C40.1068 24.3731 39.9926 24.4593 39.9591 24.5699C39.9342 24.6523 39.9541 24.7483 39.9889 24.9158L39.9897 24.9196L40.0541 25.2299L40.7572 25.2045C41.3312 25.1837 41.5639 25.1539 41.6373 25.0184C41.6872 25.3288 41.8972 26.6407 41.9616 27.1321C41.8882 26.9478 41.7303 26.9954 41.4066 27.1199C40.112 27.6185 39.5991 29.1305 40.5796 29.5583C40.8934 29.6952 41.4922 29.6744 41.7982 29.5499C41.5679 29.8201 40.953 30.6005 40.8964 30.6132C40.8398 30.6259 40.6054 30.6399 40.5103 30.6366C40.4152 30.6333 40.1594 30.6132 40.1037 30.5874C40.0479 30.5616 39.5077 30.1222 39.5077 30.1222C38.966 29.7154 38.6076 29.4762 38.2047 29.3459C38.0667 29.3013 37.9235 29.2694 37.766 29.2479C37.3622 29.1929 36.8641 29.2062 36.1176 29.2482C35.5029 29.2827 34.5705 29.3337 34.0457 29.3614C32.1088 29.4639 31.8469 29.5461 30.9908 30.3195C30.8987 30.4027 30.8179 30.4782 30.7447 30.5466C30.5441 30.7341 30.4 30.8687 30.2338 30.9655C29.8106 31.212 29.2443 31.213 27.2356 31.2165C26.9481 31.217 26.6311 31.2176 26.2807 31.2189C26.0709 31.2197 25.8727 31.2206 25.6856 31.2215L25.6819 31.2215C23.3223 31.2322 22.0752 30.6352 22.0752 30.6352C22.0752 30.6352 21.9865 30.1446 21.9348 29.8294C21.8672 29.417 21.7149 28.6041 21.6413 28.1928ZM21.4206 24.5653C21.5169 24.4096 22.2755 24.2314 23.8494 23.9951C23.9243 23.9839 24.1574 23.9852 24.3673 23.9982C24.7213 24.02 24.9404 24.0574 25.4306 24.1798C26.5245 24.4529 27.6754 24.6606 28.3205 24.7012C28.9654 24.7418 29.104 24.8209 29.3956 25.3149C29.6324 25.7158 29.309 25.8123 27.5843 25.8549C25.7755 25.8994 23.3195 25.6773 22.5543 25.3997C21.9438 25.1783 21.3237 24.722 21.4206 24.5653ZM23.588 29.2045C23.6206 28.3135 23.7173 28.1072 24.1706 27.9599C24.4555 27.8674 27.1829 27.9661 28.0478 28.1003C28.9188 28.2354 28.9303 28.2397 29.1779 28.5131C29.7367 29.1303 29.2154 30.1864 28.2932 30.3054C28.1433 30.3248 27.8488 30.3644 27.6389 30.3936C26.9638 30.4874 23.8182 30.4658 23.719 30.3667C23.5917 30.2394 23.5602 29.9602 23.588 29.2045ZM31.4415 24.5551C32.3658 24.4063 32.639 24.3814 33.773 24.3429C36.0318 24.2663 38.981 24.3179 39.1868 24.4377C39.7963 24.7926 39.6457 26.9411 38.9894 27.2525C38.2227 27.6163 32.3444 27.8805 31.7765 27.5766C31.2318 27.2852 30.9916 26.9269 30.8158 26.1427C30.5395 24.9111 30.6281 24.6861 31.4415 24.5551ZM9.41418 19.9626C11.0648 18.314 12.1361 17.6659 13.4349 17.5299C15.1859 17.3466 16.0698 17.9591 16.5129 19.6633C16.5856 19.9432 16.6681 20.2469 16.6961 20.3384C16.7972 20.6679 17.0986 21.2122 17.2886 21.4076C17.5945 21.7228 17.5319 21.748 16.5482 21.706C15.5031 21.6614 14.3125 21.5843 13.5168 21.5097C13.1868 21.4788 12.6225 21.4284 12.2627 21.3978C11.9028 21.3672 11.3262 21.3172 10.9813 21.2869C10.6364 21.2565 9.92485 21.219 9.39998 21.2034C8.12601 21.1658 8.02972 21.1416 8.36455 20.9438C8.45483 20.8905 8.92718 20.4489 9.41418 19.9626ZM8.61763 22.0881C7.93354 22.1941 7.88482 22.2442 8.39849 22.3134C9.40298 22.4487 10.5093 22.6097 11.1448 22.7132C11.914 22.8385 12.1549 22.872 13.4621 23.0351C13.972 23.0988 14.5731 23.174 14.798 23.2023C15.5361 23.2954 16.5974 23.3298 16.5974 23.2607C16.5974 23.2199 16.4673 23.1983 16.2217 23.1983C15.8108 23.1983 14.9732 23.0438 14.4164 22.8653C14.2214 22.8028 13.8411 22.6949 13.5713 22.6255C13.3013 22.556 12.8474 22.4394 12.5625 22.3662C12.2777 22.293 11.8237 22.2025 11.5537 22.1652C11.2839 22.1278 10.9297 22.075 10.7668 22.048C10.3469 21.9782 9.18696 21.9999 8.61763 22.0881Z" fill="#B22930"/>
<path fill-rule="evenodd" clip-rule="evenodd" d="M23.8494 23.9951C22.2755 24.2314 21.5169 24.4096 21.4206 24.5653C21.3237 24.722 21.9438 25.1783 22.5543 25.3997C23.3195 25.6773 25.7755 25.8994 27.5843 25.8549C29.309 25.8123 29.6324 25.7158 29.3956 25.3149C29.104 24.8209 28.9654 24.7418 28.3205 24.7012C27.6754 24.6606 26.5245 24.4529 25.4306 24.1798C24.9404 24.0574 24.7213 24.02 24.3673 23.9982C24.1574 23.9852 23.9243 23.9839 23.8494 23.9951Z" fill="#EEEEEE"/>
<path d="M8.04446 26.9019C8.05341 25.8591 7.84815 24.9641 7.5492 24.5905C7.99226 24.6407 8.33762 25.7404 8.32606 27.0865C8.31426 28.462 7.93421 29.574 7.47719 29.57C7.36664 29.5691 7.26169 29.5029 7.16631 29.3837C7.17602 29.3848 7.18578 29.3854 7.19558 29.3855C7.6526 29.3894 8.03266 28.2775 8.04446 26.9019Z" fill="#EEEEEE"/>
<path d="M20.4189 28.0636C20.3036 26.699 19.8586 25.5594 19.3264 25.1153C20.0525 25.1152 20.7505 26.5016 20.8994 28.2631C21.0515 30.0632 20.5725 31.5734 19.8294 31.6361C19.6497 31.6513 19.4709 31.5804 19.3011 31.4387C19.317 31.4387 19.333 31.438 19.3489 31.4367C20.0919 31.3739 20.571 29.8637 20.4189 28.0636Z" fill="#EEEEEE"/>
<path fill-rule="evenodd" clip-rule="evenodd" d="M40.9599 23.6953C40.9599 23.6953 41.2912 24.0414 41.4238 24.3004C41.5561 24.5588 41.6375 25.0187 41.6375 25.0187C41.5642 25.1543 41.3315 25.1842 40.7574 25.2049L40.0544 25.2303L39.99 24.92L39.9892 24.9162C39.9544 24.7487 39.9344 24.6527 39.9594 24.5703C39.9929 24.4597 40.1071 24.3735 40.3747 24.1717L40.3795 24.168C40.5997 24.002 40.8266 23.8142 40.8837 23.7506C40.8957 23.7372 40.9081 23.726 40.921 23.7168C40.9314 23.7094 40.942 23.7034 40.9529 23.6985L40.9599 23.6953Z" fill="#EEEEEE"/>
<path d="M19.3793 45.2673C21.1464 45.6771 23.9993 45.7473 23.9993 45.7473C23.9993 45.7473 22.9564 45.5117 22.3193 45.2673C21.4533 44.935 21.1637 44.6829 20.3993 44.1573C19.7418 43.7051 19.3089 43.301 18.6593 42.8373C17.9414 42.3247 17.5083 42.0712 16.7093 41.6973C16.0511 41.3892 14.9693 41.0373 14.9693 41.0373C14.9693 41.0373 15.5113 40.8618 15.8693 40.7973C16.6418 40.658 17.1028 40.6824 17.8793 40.7973C19.0201 40.966 19.5709 41.4132 20.6393 41.8473C21.5486 42.2167 22.0101 42.5524 22.9493 42.8373C23.7277 43.0733 24.1798 43.1782 24.9893 43.2573C25.7356 43.3302 26.9093 43.2573 26.9093 43.2573C26.9093 43.2573 26.2803 43.138 25.8893 43.0173C24.9231 42.719 24.4309 42.3926 23.5793 41.8473C22.7365 41.3075 22.4093 40.9173 21.5693 40.3173C20.7166 39.7082 20.1679 39.3751 19.1693 39.0573C18.3855 38.8078 18.0046 38.7169 17.1893 38.6073C15.1225 38.3294 13.8276 38.9341 11.7593 38.6673C10.9684 38.5652 10.5144 38.5322 9.74934 38.3073C8.74842 38.0129 7.31934 37.1973 7.31934 37.1973C7.31934 37.1973 8.69799 38.9961 9.74934 39.9873C10.7946 40.9727 11.4647 41.4395 12.6593 42.2373C13.9246 43.0822 14.6561 43.5459 16.0493 44.1573C17.3046 44.708 18.044 44.9576 19.3793 45.2673Z" fill="#B22930"/>
<path d="M31.487 37.3539C30.1154 36.7246 27.3682 34.9944 27.3682 34.9944C27.3682 34.9944 28.6793 35.2594 29.5199 35.4269C31.1334 35.7484 32.0223 36.1202 33.654 36.2369C34.6006 36.3045 35.1185 36.3559 36.0599 36.2369C37.058 36.1107 37.6146 35.9472 38.5499 35.5769C39.4515 35.2199 39.9266 34.9348 40.7399 34.4069C41.8221 33.7045 42.4392 33.2767 43.2899 32.3069C43.9692 31.5326 44.3042 31.0406 44.7599 30.1169C45.1404 29.3458 45.5099 28.0469 45.5099 28.0469C45.5099 28.0469 45.2466 29.6957 44.9399 30.7169C44.7065 31.4943 44.5489 31.9248 44.2199 32.6669C43.8823 33.4286 43.6659 33.8468 43.2299 34.5569C42.7297 35.3717 42.4716 35.8664 41.7899 36.5369C41.1063 37.2092 40.6609 37.5684 39.7799 37.9469C39.0175 38.2744 38.5343 38.3318 37.7099 38.4269C36.872 38.5236 36.3894 38.5097 35.5499 38.4269C34.7542 38.3483 34.328 38.2696 33.5656 38.0739C32.7335 37.8603 32.059 37.6164 31.487 37.3539Z" fill="#B22930"/>
<path d="M21.9874 33.9116C20.3003 33.1877 19.2192 33.0965 17.3916 32.9228C15.5883 32.7514 14.563 33.1153 12.7541 33.0197C10.4948 32.9002 9.83206 32.9098 7.02138 32.1829C4.2107 31.456 3.125 28.2148 3.125 28.2148C3.125 28.2148 3.41406 30.8033 4.24415 32.1829C5.02864 33.4867 5.71458 34.1363 7.02138 34.9158C7.9894 35.4932 8.6245 35.6764 9.72139 35.9358C11.0252 36.2442 11.802 36.1744 13.1414 36.2058C14.7592 36.2437 15.6747 35.8321 17.2814 36.0258C18.6158 36.1867 19.3733 36.3727 20.6114 36.8958C21.7922 37.3947 22.3484 37.89 23.4314 38.5758C24.8343 39.4642 25.4436 40.2588 26.9414 40.9758C28.3049 41.6286 29.135 41.931 30.6314 42.1458C31.9302 42.3323 32.6958 42.3536 33.9914 42.1458C35.1038 41.9674 35.755 41.8318 36.7514 41.3058C37.3405 40.9948 38.1614 40.3458 38.1614 40.3458C38.1614 40.3458 36.9085 40.553 36.0979 40.5957C34.9789 40.6547 34.3402 40.6371 33.231 40.4779C32.1972 40.3294 31.6101 40.2142 30.6314 39.8495C29.6219 39.4734 29.0882 39.1622 28.1845 38.5758C27.5553 38.1675 27.2467 37.8753 26.6465 37.4255C24.8229 36.0588 24.0817 34.8102 21.9874 33.9116Z" fill="#B22930"/>
<path d="M5.21245 22.4322C5.00431 23.2721 5.01273 24.0078 5.01273 24.0078C5.01273 24.0078 4.36072 23.6892 3.99634 23.2073C3.74714 22.8777 3.56856 22.2395 3.56856 22.2395C3.56856 22.2395 3.52856 21.7732 3.56856 21.4788C3.61884 21.1088 3.71051 20.9001 3.85594 20.5691L3.86335 20.5523C4.01891 20.1981 4.20944 20.0181 4.48106 19.7427C4.74599 19.4741 5.03203 19.3301 5.37156 19.1656C5.79357 18.9612 6.53588 18.9606 6.53588 18.9606C6.53588 18.9606 6.44208 18.5385 6.43045 18.2537C6.41504 17.8762 6.44643 17.6099 6.56952 17.2527C6.7209 16.8134 6.91101 16.498 7.22868 16.1589C7.49636 15.8731 7.79217 15.6426 8.27547 15.4538C8.75877 15.265 9.41924 15.2021 9.93678 15.3218C10.4386 15.4378 10.5833 15.5409 10.5833 15.5409C10.5833 15.5409 10.6589 15.0986 10.7549 14.8492C10.8508 14.5997 11.0511 14.3186 11.2994 14.0696C11.5476 13.8206 11.7583 13.7115 12.1413 13.5707C12.4072 13.4729 12.8575 13.4325 12.9908 13.4547C13.1241 13.4769 12.4868 12.624 12.428 12.4125C12.3692 12.201 12.0111 11.097 12.3845 9.98908C12.758 8.88113 13.4022 8.13176 14.2419 7.68154C15.0816 7.23132 16.0165 7.20832 16.1294 7.20844C16.2424 7.20857 17.0271 7.23611 17.5493 7.48143C18.0714 7.72676 18.4962 7.90241 19.1074 8.61758C19.7186 9.33275 19.8736 11.0231 19.8736 11.0231C19.8736 11.0231 19.341 10.6525 18.218 10.7892C17.095 10.926 16.4189 11.9254 16.4189 11.9254C16.3289 12.0753 16.3495 12.0927 16.3495 12.0927C16.3495 12.0927 16.9329 11.4305 17.6481 11.2462C18.3633 11.0618 18.9293 11.1387 19.3621 11.2867C19.7949 11.4347 20.082 11.6584 20.082 11.6584C20.082 11.6584 20.1193 11.1413 20.4007 10.6762C20.682 10.211 20.9665 9.97048 21.2003 9.81674C21.4341 9.663 21.8529 9.43817 22.5501 9.40786C23.2473 9.37755 23.7897 9.71097 23.7897 9.71097C23.7897 9.71097 23.5132 8.94402 23.7048 7.8109C23.8963 6.67778 24.7617 5.79745 25.1608 5.50415C25.56 5.21084 26.4304 4.7655 27.2139 4.73771C27.9974 4.70991 28.4101 4.78683 29.1301 5.08681C29.8501 5.3868 30.4792 6.02177 30.7862 6.56502C31.1089 7.13591 31.2462 7.50979 31.3361 8.24381C31.4259 8.97784 31.3015 10.242 31.3015 10.242C31.3015 10.242 30.8785 10.0981 30.5008 10.0498C30.1232 10.0016 29.4713 10.0017 28.8188 10.242C28.1663 10.4822 27.6327 10.9947 27.6327 10.9947C27.6327 10.9947 28.1045 10.7742 28.5264 10.645C28.9483 10.5158 29.4983 10.4586 29.9187 10.5691C30.3391 10.6795 30.8085 10.8179 31.0803 10.9947C31.3521 11.1714 31.79 11.4958 31.9665 11.7056C32.1431 11.9155 32.5076 12.4431 32.6374 12.8722C32.7673 13.3013 32.7859 13.6953 32.7859 13.6953C32.7859 13.6953 32.0584 13.9083 31.5431 14.4403C31.0278 14.9722 30.8937 15.4866 30.8937 15.4866C30.8937 15.4866 31.3473 14.959 31.7172 14.7238C32.3478 14.3227 32.9263 14.2041 33.6924 14.2503C34.58 14.3037 35.2626 14.7332 35.6326 15.1051C35.977 15.4512 36.2043 15.7968 36.3707 16.2501C36.5371 16.7034 36.5261 17.2612 36.5261 17.2612C36.5261 17.2612 36.6949 16.7554 36.6486 16.2501C36.6023 15.7448 36.4749 15.5248 36.3418 15.2412C36.2086 14.9575 35.9839 14.7087 35.7797 14.4833C35.5756 14.2578 35.0549 13.9378 35.0549 13.9378C35.0549 13.9378 35.1515 12.3554 36.5194 11.5876C37.8873 10.8198 40.0413 10.9184 41.0654 12.6508C42.0895 14.3833 40.8365 15.8746 40.8365 15.8746C40.8365 15.8746 40.1383 15.6561 39.3431 15.9878C38.5479 16.3194 38.2603 17.1422 38.2603 17.1422C38.2603 17.1422 38.9709 16.3796 39.8395 16.3608C40.708 16.3419 41.587 16.5374 42.162 17.6356C42.737 18.7337 41.948 19.7157 41.948 19.7157C41.948 19.7157 42.5546 19.4178 43.5323 19.647C44.5099 19.8761 45.0507 20.7643 45.1826 21.2691C45.3146 21.7738 45.3171 22.5079 44.7108 23.2567C44.1044 24.0055 42.7038 24.3942 42.7038 24.3942C42.7038 24.3942 42.4399 23.4632 41.5099 22.9533C40.5799 22.4433 39.6507 22.0516 38.436 21.5261C36.6349 20.7469 34.9753 20.1581 34.097 19.7876C33.2188 19.4171 32.6047 19.0396 31.946 18.5182C31.2873 17.9967 28.779 16.3314 27.8203 16.085C26.8616 15.8387 25.4573 15.8281 24.1353 15.7677C22.8134 15.7073 17.3291 15.7677 15.4552 15.8497C13.5812 15.9317 12.3431 16.2931 11.4793 16.5947C10.6156 16.8964 9.17612 18.2537 8.43542 18.9944C7.69471 19.7351 7.94004 19.6632 7.0256 20.0437C6.11116 20.4243 5.42059 21.5923 5.21245 22.4322Z" fill="#EEEEEE"/>
<path d="M32.8666 11.5094C32.4127 10.8285 31.712 10.4354 31.712 10.4354C31.712 10.4354 31.923 9.22686 33.0794 8.8205C34.2358 8.41413 35.12 8.95522 35.5679 9.4229C36.0158 9.89058 36.4437 11.055 35.5679 12.0651C34.692 13.0752 33.3779 12.7164 33.3779 12.7164C33.3779 12.7164 33.3205 12.1903 32.8666 11.5094Z" fill="#EEEEEE"/>
<circle cx="21.24" cy="5.81812" r="1.74" fill="#EEEEEE"/>
<circle cx="10.1605" cy="9.08141" r="1.14" fill="#EEEEEE"/>
<circle cx="8.33623" cy="12.9749" r="1.41435" fill="#EEEEEE"/>
</svg>
