<svg width="96" height="62" viewBox="0 0 96 62" fill="none" xmlns="http://www.w3.org/2000/svg">
<path d="M91.7867 20.8566L75.3618 4.42853C73.3091 2.36577 70.5168 1.20938 67.6068 1.21683H5.7C3.10426 1.21683 1 3.32113 1 5.91686V43.5168C1.00518 47.8409 4.50925 51.345 8.83333 51.3502H10.5253C11.2997 56.7423 15.9192 60.7457 21.3667 60.7457C26.8141 60.7457 31.4336 56.7423 32.208 51.3502H63.792C64.5663 56.7423 69.1858 60.7457 74.6333 60.7457C80.0807 60.7457 84.7002 56.7423 85.4746 51.3502H90.2999C92.8957 51.3502 95 49.2459 95 46.6502V28.61C95.0078 25.7 93.8507 22.9079 91.7867 20.8566ZM89.6357 23.1502H60.5333V10.6169H77.118L89.5714 23.0718C89.5965 23.0969 89.6122 23.1251 89.6357 23.1502ZM57.4 23.1502H10.4V10.6169H57.4V23.1502ZM4.13333 43.5168V32.5502H8.83333V29.4168H4.13333V5.91686C4.13333 5.05162 4.83475 4.35018 5.7 4.35018H67.6068C69.6854 4.34513 71.6798 5.17089 73.1465 6.6438L73.9847 7.48353H10.4C8.6695 7.48353 7.26666 8.88637 7.26666 10.6169V23.1502C7.26666 24.8807 8.6695 26.2835 10.4 26.2835H57.4V48.2168H32.208C31.4336 42.8247 26.8141 38.8213 21.3667 38.8213C15.9192 38.8213 11.2997 42.8247 10.5253 48.2168H8.83333C6.23759 48.2168 4.13333 46.1126 4.13333 43.5168ZM21.3667 57.6168C17.0404 57.6168 13.5333 54.1097 13.5333 49.7835C13.5333 45.4573 17.0404 41.9502 21.3667 41.9502C25.6929 41.9502 29.2 45.4573 29.2 49.7835C29.1948 54.1076 25.6907 57.6116 21.3667 57.6168ZM74.6333 57.6168C70.307 57.6168 66.7999 54.1097 66.7999 49.7835C66.7999 45.4573 70.307 41.9502 74.6333 41.9502C78.9595 41.9502 82.4666 45.4573 82.4666 49.7835C82.4614 54.1076 78.9574 57.6116 74.6333 57.6168ZM90.2999 48.2168H85.4746C84.7002 42.8247 80.0807 38.8213 74.6333 38.8213C69.1858 38.8213 64.5663 42.8247 63.792 48.2168H60.5333V26.2835H91.4781C91.7243 27.035 91.8552 27.8193 91.8666 28.61V29.4168H87.1666C84.5709 29.4168 82.4666 31.5211 82.4666 34.1168C82.4666 36.7126 84.5709 38.8168 87.1666 38.8168H91.8666V41.9502H87.1666V45.0835H91.8666V46.6502C91.8666 47.5154 91.1652 48.2168 90.2999 48.2168ZM91.8666 32.5502V35.6835H87.1666C86.3013 35.6835 85.5999 34.9821 85.5999 34.1168C85.5999 33.2516 86.3013 32.5502 87.1666 32.5502H91.8666Z" stroke="black"/>
<path d="M21.327 47.5562C20.8496 47.5562 20.3829 47.6978 19.9859 47.963C19.589 48.2283 19.2796 48.6053 19.0969 49.0463C18.9142 49.4874 18.8663 49.9728 18.9595 50.4411C19.0526 50.9093 19.2825 51.3394 19.6201 51.677C19.9577 52.0146 20.3878 52.2445 20.8561 52.3377C21.3243 52.4308 21.8097 52.383 22.2508 52.2003C22.6919 52.0176 23.0689 51.7082 23.3341 51.3112C23.5994 50.9143 23.7409 50.4475 23.7409 49.9701C23.7412 49.653 23.6789 49.339 23.5577 49.0461C23.4365 48.7531 23.2587 48.4869 23.0345 48.2627C22.8103 48.0385 22.5441 47.8607 22.2511 47.7394C21.9581 47.6182 21.6441 47.556 21.327 47.5562Z" stroke="black"/>
<path d="M74.7041 47.2362C74.2266 47.2362 73.7599 47.3778 73.363 47.6431C72.966 47.9083 72.6566 48.2853 72.4739 48.7264C72.2912 49.1675 72.2434 49.6528 72.3365 50.1211C72.4297 50.5893 72.6596 51.0195 72.9972 51.3571C73.3348 51.6946 73.7649 51.9246 74.2331 52.0177C74.7014 52.1108 75.1867 52.063 75.6278 51.8803C76.0689 51.6976 76.4459 51.3882 76.7112 50.9913C76.9764 50.5943 77.118 50.1276 77.118 49.6502C77.1182 49.3331 77.056 49.0191 76.9347 48.7261C76.8135 48.4331 76.6357 48.1669 76.4115 47.9427C76.1873 47.7185 75.9211 47.5407 75.6281 47.4195C75.3351 47.2983 75.0211 47.236 74.7041 47.2362Z" stroke="black"/>
<path d="M65.2334 29.917H68.3672C68.9561 29.9171 69.4335 30.3945 69.4336 30.9834C69.4336 31.5724 68.9562 32.0507 68.3672 32.0508H65.2334C64.6444 32.0506 64.167 31.5724 64.167 30.9834C64.1671 30.3945 64.6445 29.9171 65.2334 29.917Z" stroke="black"/>
</svg>
